<svg width="29" height="24" viewBox="0 0 29 24" fill="none" xmlns="http://www.w3.org/2000/svg">
<rect width="29" height="24" rx="2" fill="#FF0000"/>
<path d="M19 17.0001V19.0001H5V17.0001C5 17.0001 5 13.0001 12 13.0001C19 13.0001 19 17.0001 19 17.0001ZM15.5 7.50005C15.5 6.80782 15.2947 6.13113 14.9101 5.55556C14.5256 4.97998 13.9789 4.53138 13.3394 4.26647C12.6999 4.00157 11.9961 3.93226 11.3172 4.0673C10.6382 4.20235 10.0146 4.5357 9.52513 5.02518C9.03564 5.51466 8.7023 6.1383 8.56725 6.81724C8.4322 7.49617 8.50152 8.1999 8.76642 8.83944C9.03133 9.47899 9.47993 10.0256 10.0555 10.4102C10.6311 10.7948 11.3078 11.0001 12 11.0001C12.9283 11.0001 13.8185 10.6313 14.4749 9.97493C15.1313 9.31855 15.5 8.42831 15.5 7.50005ZM18.94 13.0001C19.5547 13.4758 20.0578 14.0805 20.4137 14.7716C20.7696 15.4626 20.9697 16.2233 21 17.0001V19.0001H25V17.0001C25 17.0001 25 13.3701 18.94 13.0001ZM18 4.00005C17.3117 3.99622 16.6385 4.20201 16.07 4.59005C16.6774 5.43879 17.0041 6.45634 17.0041 7.50005C17.0041 8.54377 16.6774 9.56132 16.07 10.4101C16.6385 10.7981 17.3117 11.0039 18 11.0001C18.9283 11.0001 19.8185 10.6313 20.4749 9.97493C21.1313 9.31855 21.5 8.42831 21.5 7.50005C21.5 6.57179 21.1313 5.68156 20.4749 5.02518C19.8185 4.3688 18.9283 4.00005 18 4.00005Z" fill="white"/>
</svg>
