<svg width="15" height="16" viewBox="0 0 15 16" fill="none" xmlns="http://www.w3.org/2000/svg">
<path d="M9.9 8C9.9 8.50632 9.75924 9.00127 9.49553 9.42226C9.23181 9.84325 8.85698 10.1714 8.41844 10.3651C7.9799 10.5589 7.49734 10.6096 7.03178 10.5108C6.56623 10.412 6.13859 10.1682 5.80294 9.81019C5.4673 9.45217 5.23872 8.99602 5.14612 8.49943C5.05351 8.00284 5.10104 7.48811 5.28269 7.02033C5.46434 6.55255 5.77195 6.15273 6.16663 5.87144C6.56131 5.59014 7.02533 5.44 7.5 5.44C8.13591 5.44211 8.74521 5.7125 9.19487 6.19214C9.64453 6.67177 9.89802 7.32169 9.9 8ZM15 4.48V11.52C15 12.7082 14.5575 13.8477 13.7698 14.6878C12.9822 15.528 11.9139 16 10.8 16H4.2C3.08609 16 2.0178 15.528 1.23015 14.6878C0.442499 13.8477 0 12.7082 0 11.52V4.48C0 3.29183 0.442499 2.15232 1.23015 1.31216C2.0178 0.471999 3.08609 0 4.2 0H10.8C11.9139 0 12.9822 0.471999 13.7698 1.31216C14.5575 2.15232 15 3.29183 15 4.48ZM11.1 8C11.1 7.24052 10.8889 6.49809 10.4933 5.86661C10.0977 5.23513 9.53547 4.74294 8.87766 4.4523C8.21985 4.16166 7.49601 4.08562 6.79768 4.23378C6.09934 4.38195 5.45788 4.74768 4.95442 5.28471C4.45095 5.82174 4.10808 6.50597 3.96917 7.25085C3.83027 7.99574 3.90156 8.76784 4.17403 9.4695C4.44651 10.1712 4.90793 10.7709 5.49995 11.1928C6.09196 11.6148 6.78799 11.84 7.5 11.84C8.45478 11.84 9.37045 11.4354 10.0456 10.7153C10.7207 9.99515 11.1 9.01843 11.1 8ZM12.3 3.84C12.3 3.65013 12.2472 3.46452 12.1483 3.30665C12.0494 3.14878 11.9089 3.02574 11.7444 2.95308C11.58 2.88042 11.399 2.8614 11.2244 2.89845C11.0498 2.93549 10.8895 3.02692 10.7636 3.16118C10.6377 3.29544 10.552 3.46649 10.5173 3.65271C10.4826 3.83893 10.5004 4.03196 10.5685 4.20738C10.6366 4.38279 10.752 4.53272 10.9 4.63821C11.048 4.7437 11.222 4.8 11.4 4.8C11.6387 4.8 11.8676 4.69886 12.0364 4.51882C12.2052 4.33879 12.3 4.09461 12.3 3.84Z" fill="#A3A6B7"/>
</svg>
