<svg width="16" height="16" viewBox="0 0 16 16" fill="none" xmlns="http://www.w3.org/2000/svg">
<path d="M8.97315 14.6556C9.15005 14.6556 9.3197 14.7258 9.44479 14.8509C9.56987 14.976 9.64015 15.1457 9.64015 15.3226C9.64015 15.4995 9.56987 15.6691 9.44479 15.7942C9.3197 15.9193 9.15005 15.9896 8.97315 15.9896C8.79625 15.9896 8.62659 15.9193 8.50151 15.7942C8.37642 15.6691 8.30615 15.4995 8.30615 15.3226C8.30615 15.1457 8.37642 14.976 8.50151 14.8509C8.62659 14.7258 8.79625 14.6556 8.97315 14.6556ZM6.64015 13.9896C6.72984 13.9861 6.81932 14.0008 6.90322 14.0327C6.98711 14.0646 7.0637 14.1131 7.12839 14.1754C7.19308 14.2376 7.24454 14.3123 7.2797 14.3949C7.31485 14.4775 7.33297 14.5663 7.33297 14.6561C7.33297 14.7458 7.31485 14.8347 7.2797 14.9173C7.24454 14.9999 7.19308 15.0745 7.12839 15.1367C7.0637 15.199 6.98711 15.2475 6.90322 15.2794C6.81932 15.3114 6.72984 15.326 6.64015 15.3226C6.46785 15.3159 6.30483 15.2427 6.18529 15.1185C6.06574 14.9942 5.99897 14.8285 5.99897 14.6561C5.99897 14.4836 6.06574 14.3179 6.18529 14.1936C6.30483 14.0694 6.46785 13.9962 6.64015 13.9896ZM11.3061 13.9896C11.3958 13.9861 11.4853 14.0008 11.5692 14.0327C11.6531 14.0646 11.7297 14.1131 11.7944 14.1754C11.8591 14.2376 11.9105 14.3123 11.9457 14.3949C11.9808 14.4775 11.999 14.5663 11.999 14.6561C11.999 14.7458 11.9808 14.8347 11.9457 14.9173C11.9105 14.9999 11.8591 15.0745 11.7944 15.1367C11.7297 15.199 11.6531 15.2475 11.5692 15.2794C11.4853 15.3114 11.3958 15.326 11.3061 15.3226C11.1338 15.3159 10.9708 15.2427 10.8513 15.1185C10.7317 14.9942 10.665 14.8285 10.665 14.6561C10.665 14.4836 10.7317 14.3179 10.8513 14.1936C10.9708 14.0694 11.1338 13.9962 11.3061 13.9896ZM8.97315 3.98956C11.4381 3.98956 12.8361 5.56256 13.0391 7.46356H13.1011C14.6871 7.46356 15.9731 8.70056 15.9731 10.2266C15.9731 11.7526 14.6871 12.9896 13.1011 12.9896H4.84515C3.25915 12.9896 1.97315 11.7526 1.97315 10.2266C1.97315 8.70056 3.25915 7.46356 4.84515 7.46356H4.90715C5.11215 5.54956 6.50815 3.98956 8.97315 3.98956ZM1.77615 6.68956C1.81467 6.80031 1.81305 6.92109 1.77155 7.03076C1.73006 7.14044 1.65134 7.23204 1.54915 7.28956L1.46615 7.32556L0.665146 7.60156C0.546939 7.64293 0.417513 7.63842 0.302465 7.58895C0.187417 7.53947 0.095125 7.44862 0.0438424 7.33437C-0.00744012 7.22011 -0.0139791 7.09077 0.0255188 6.97193C0.0650166 6.85308 0.147675 6.75339 0.257146 6.69256L0.339146 6.65656L1.14115 6.38056C1.26646 6.33756 1.40373 6.34605 1.52279 6.40417C1.64185 6.4623 1.73297 6.5653 1.77615 6.69056V6.68956ZM6.89315 2.48956C7.22515 2.65156 7.51815 2.86256 7.76615 3.10956C6.00415 3.47356 4.73615 4.64256 4.22315 6.26556L4.15815 6.48956L4.11215 6.67656L3.94715 6.70656C3.50352 6.7979 3.08006 6.96864 2.69715 7.21056C2.31062 6.60848 2.13157 5.89652 2.18727 5.18322C2.24298 4.46991 2.53039 3.79439 3.0057 3.25961C3.48101 2.72483 4.11814 2.36013 4.81998 2.22111C5.52182 2.08208 6.24987 2.17636 6.89315 2.48956ZM0.890146 2.65956L0.973146 2.69156L1.73515 3.06256C1.84748 3.11717 1.93531 3.21184 1.98134 3.32795C2.02738 3.44406 2.02829 3.5732 1.9839 3.68995C1.93951 3.8067 1.85303 3.9026 1.74148 3.95879C1.62993 4.01498 1.50138 4.02738 1.38115 3.99356L1.29715 3.96156L0.535146 3.59056C0.422812 3.53595 0.334985 3.44128 0.288948 3.32517C0.242911 3.20906 0.241999 3.07992 0.286391 2.96317C0.330783 2.84642 0.417265 2.75052 0.528816 2.69433C0.640367 2.63814 0.768909 2.62574 0.889146 2.65956H0.890146ZM7.96315 0.284561C8.06843 0.335931 8.15234 0.422639 8.20022 0.529554C8.2481 0.63647 8.25693 0.756805 8.22515 0.869561L8.19315 0.953561L7.82215 1.71556C7.76754 1.82789 7.67286 1.91572 7.55675 1.96176C7.44064 2.0078 7.31151 2.00871 7.19476 1.96432C7.07801 1.91992 6.9821 1.83344 6.92591 1.72189C6.86973 1.61034 6.85732 1.4818 6.89115 1.36156L6.92315 1.27656L7.29515 0.514561C7.35332 0.395561 7.45633 0.304507 7.58157 0.261385C7.70681 0.218263 7.84405 0.226598 7.96315 0.284561ZM4.17315 0.252561L4.21015 0.334561L4.48615 1.13656C4.52672 1.25462 4.52166 1.38358 4.47197 1.49809C4.42228 1.61261 4.33155 1.7044 4.21762 1.75541C4.10368 1.80642 3.97479 1.81297 3.85627 1.77377C3.73775 1.73457 3.63819 1.65245 3.57715 1.54356L3.54115 1.46156L3.26515 0.660561C3.22521 0.542784 3.2306 0.414351 3.28026 0.300334C3.32993 0.186316 3.4203 0.0948988 3.53373 0.0439267C3.64717 -0.00704534 3.77553 -0.0139132 3.89376 0.0246637C4.01199 0.0632407 4.1116 0.144493 4.17315 0.252561Z" fill="#A3A6B7"/>
</svg>
