<svg width="16" height="13" viewBox="0 0 16 13" fill="none" xmlns="http://www.w3.org/2000/svg">
<path d="M16 1.52941C15.4111 1.79706 14.7763 1.97294 14.1185 2.05706C14.7916 1.65176 15.3117 1.00941 15.5564 0.237059C14.9216 0.619412 14.218 0.887059 13.4761 1.04C12.8719 0.382353 12.0229 0 11.0593 0C9.26195 0 7.7935 1.46824 7.7935 3.28059C7.7935 3.54059 7.82409 3.79294 7.87763 4.03C5.15488 3.89235 2.7304 2.58471 1.11663 0.604118C0.833652 1.08588 0.67304 1.65176 0.67304 2.24824C0.67304 3.38765 1.24665 4.39706 2.13384 4.97059C1.59082 4.97059 1.08604 4.81765 0.642448 4.58824V4.61118C0.642448 6.20176 1.77438 7.53235 3.27342 7.83059C2.79214 7.96228 2.28688 7.9806 1.79732 7.88412C2.00505 8.53601 2.41188 9.10643 2.96062 9.51518C3.50937 9.92393 4.17243 10.1505 4.8566 10.1629C3.69685 11.0809 2.25927 11.5771 0.780115 11.57C0.520077 11.57 0.260038 11.5547 0 11.5241C1.45316 12.4571 3.18164 13 5.03251 13C11.0593 13 14.3709 7.99882 14.3709 3.66294C14.3709 3.51765 14.3709 3.38 14.3633 3.23471C15.0057 2.77588 15.5564 2.19471 16 1.52941Z" fill="#A3A6B7"/>
</svg>
