<svg width="15" height="16" viewBox="0 0 15 16" fill="none" xmlns="http://www.w3.org/2000/svg">
<path d="M0.00301003 16L1.01701 12.0256C0.348863 10.8039 -0.00216797 9.41439 1.00742e-05 7.99999C1.00742e-05 3.5816 3.35776 0 7.50001 0C11.6423 0 15 3.5816 15 7.99999C15 12.4184 11.6423 16 7.50001 16C6.17459 16.0023 4.8725 15.6281 3.72751 14.916L0.00301003 16ZM4.79326 4.2464C4.6964 4.25281 4.60176 4.28002 4.51501 4.3264C4.43365 4.37554 4.35938 4.43698 4.29451 4.5088C4.20451 4.5992 4.15351 4.6776 4.09876 4.7536C3.82157 5.13839 3.67247 5.61073 3.67501 6.096C3.67651 6.488 3.77251 6.8696 3.92251 7.2264C4.22926 7.94799 4.73401 8.71199 5.40076 9.41999C5.56126 9.59039 5.71801 9.76159 5.88676 9.92079C6.7143 10.698 7.70045 11.2584 8.76675 11.5576L9.1935 11.6272C9.33225 11.6352 9.471 11.624 9.6105 11.6168C9.82893 11.6048 10.0422 11.5417 10.2353 11.432C10.3335 11.378 10.4293 11.3193 10.5225 11.256C10.5225 11.256 10.5548 11.2336 10.6163 11.184C10.7175 11.104 10.7798 11.0472 10.8638 10.9536C10.926 10.8848 10.98 10.804 11.0213 10.712C11.0798 10.5816 11.1383 10.3328 11.1623 10.1256C11.1803 9.96719 11.175 9.88079 11.1728 9.82719C11.1698 9.74159 11.103 9.65279 11.0303 9.61519L10.5938 9.40639C10.5938 9.40639 9.94125 9.10319 9.543 8.90959C9.50101 8.89007 9.45602 8.87895 9.41025 8.87679C9.35894 8.87117 9.30709 8.87733 9.25819 8.89486C9.20929 8.91238 9.16448 8.94086 9.12675 8.97839V8.97679C9.123 8.97679 9.07275 9.02239 8.5305 9.72319C8.49938 9.7678 8.45651 9.80152 8.40736 9.82004C8.3582 9.83856 8.30499 9.84105 8.2545 9.82719C8.20564 9.81326 8.15776 9.79561 8.11125 9.77439C8.01825 9.73279 7.986 9.71679 7.92225 9.68719L7.9185 9.68559C7.48944 9.48577 7.09217 9.21587 6.74101 8.88559C6.64651 8.79759 6.55876 8.70159 6.46876 8.60879C6.17369 8.30738 5.91654 7.9664 5.70376 7.5944L5.65951 7.51839C5.62772 7.46733 5.60203 7.41224 5.58301 7.35439C5.55451 7.23679 5.62876 7.1424 5.62876 7.1424C5.62876 7.1424 5.81101 6.92959 5.89576 6.8144C5.96632 6.71865 6.03216 6.61905 6.09301 6.516C6.18151 6.364 6.20926 6.208 6.16276 6.0872C5.95276 5.54 5.73526 4.9952 5.51176 4.4544C5.46751 4.3472 5.33626 4.2704 5.21701 4.2552C5.17651 4.2504 5.13601 4.2456 5.09551 4.2424C4.99479 4.23706 4.89386 4.23813 4.79326 4.2456V4.2464Z" fill="#A3A6B7"/>
</svg>
